<svg id="Capa_1" data-name="Capa 1" xmlns="http://www.w3.org/2000/svg" viewBox="0 0 118.82 118.51"><defs><style>.cls-1{fill:#d4e0df;isolation:isolate;opacity:0.44;}.cls-2{fill:#3c3c3b;}</style></defs><path class="cls-1" d="M89.93,11.88C82.26,4.15,71.52-1.78,60.6.49,51,2.34,42.45,7.42,34.15,12.55c-10.95,7-22.83,13.86-30,25.41C-1.93,47.89-.3,60.43,2.56,71.2s5.88,21.52,11.1,31.28a27.51,27.51,0,0,0,17.25,14.57c12,3,24.38.52,36.51.26s24.67-1.22,36.21-5.7c10.7-4.52,14.7-17.42,15.16-28.56C119.45,56.37,107.93,30.37,89.93,11.88Z"/><g id="Capa_2" data-name="Capa 2"><g id="Capa_1-2" data-name="Capa 1-2"><path class="cls-2" d="M28,42.1V74.69l31.43,17L90.84,74.61V42.1L59.41,26.6Zm43.77-7.24L44,49,31.25,42.68l28.2-13.82ZM59.42,56.66,46.21,50.12,73.94,36l13.68,6.72ZM30,44.27,58.43,58.38V88.89L30,73.43ZM60.41,88.89V58.38L88.86,44.27V73.43Z"/></g></g></svg>