<svg id="Capa_1" data-name="Capa 1" xmlns="http://www.w3.org/2000/svg" viewBox="0 0 118.82 118.51"><defs><style>.cls-1{fill:#d4e0df;isolation:isolate;opacity:0.44;}.cls-2{fill:#3c3c3b;}</style></defs><path id="Path_3171" data-name="Path 3171" class="cls-1" d="M96.27,10.61c10.54,7.43,17.2,21,20.48,35.7s3.12,30.51-3.28,44-18.85,24.46-32.6,27.4-28.69-2.43-43-8.21S9.74,97.65,3.86,87.11.05,61.61,2,46.14,6.19,14.5,15.26,6.81,40.59-.45,55.89.58,85.72,3.09,96.27,10.61Z"/><g id="Capa_2" data-name="Capa 2"><g id="Capa_1-2" data-name="Capa 1-2"><path class="cls-2" d="M99.76,77.47a29.37,29.37,0,0,0-2.18-6.21,30,30,0,0,0-4.18-6.55,61.36,61.36,0,0,0-3.28-16.58,60.46,60.46,0,0,0-3.26-7.81l6.82-4.77-.9-1.31L82,41.79l-.57.39h0l-6,4.24.9,1.29,5.52-3.82c.69,4.24,2.31,17-2,21.92a13.63,13.63,0,0,1-1.37,1.37,16.8,16.8,0,0,1-11,4H60.3V59.44h0a9,9,0,0,0-8.95-8.22h-9.8V33.43H18.82V52.85h7.7V61h7.09a44.33,44.33,0,0,0-3.86,5.9,44.92,44.92,0,0,0-4.18,10.53l-.26,1h8a7.53,7.53,0,0,0,14.9-.15H81.34a7.53,7.53,0,0,0,15,.11H100ZM40,35.11v3.77H20.39V35ZM20.46,51.32V40.38H40V51.22H20.39Zm7.65,1.53h23.2a7.37,7.37,0,0,1,7.37,6.63H28.11ZM40.82,83.49a6,6,0,1,1,6-6,6,6,0,0,1-6,6Zm48,0a6,6,0,1,1,6-6v0a6,6,0,0,1-6,6h0Zm7.44-6.7a7.53,7.53,0,0,0-14.92,0H48.18a7.53,7.53,0,0,0-14.92,0H27.35A43.66,43.66,0,0,1,31,67.58a44.56,44.56,0,0,1,4.49-6.65H58.72V72.74h8.53a18.5,18.5,0,0,0,12.25-4.4c.53-.48,1-1,1.52-1.51,5-5.73,3-20,2.27-23.95l.7-.5,1.62-1.14a61.76,61.76,0,0,1,3.1,7.37A60.32,60.32,0,0,1,91.93,65v.28l.18.2a27.39,27.39,0,0,1,4,6.39,25.58,25.58,0,0,1,1.84,4.92Z"/></g></g></svg>