<svg id="Capa_1" data-name="Capa 1" xmlns="http://www.w3.org/2000/svg" viewBox="0 0 118.82 118.51"><defs><style>.cls-1{fill:#d4e0df;isolation:isolate;opacity:0.44;}.cls-2{fill:#3c3c3b;}</style></defs><path id="Path_3171" data-name="Path 3171" class="cls-1" d="M96.27,10.61c10.54,7.43,17.2,21,20.48,35.7s3.12,30.51-3.28,44-18.85,24.46-32.6,27.4-28.69-2.43-43-8.21S9.74,97.65,3.86,87.11.05,61.61,2,46.14,6.19,14.5,15.26,6.81,40.59-.45,55.89.58,85.72,3.09,96.27,10.61Z"/><path class="cls-2" d="M80,33.37A31.72,31.72,0,0,0,32.81,74.05L26.74,91.94,45.34,86a32.77,32.77,0,0,0,21.09,3.14,32.14,32.14,0,0,0,25-24.67A31.77,31.77,0,0,0,80,33.37ZM89.4,64.12A30,30,0,0,1,66,87.12,30.82,30.82,0,0,1,45.87,84l-.39-.2L30,88.71l5.05-14.89-.24-.41a29.65,29.65,0,1,1,54.6-9.29Z"/><path class="cls-2" d="M74.29,65.32c-.79-.39-4.71-2.3-5.44-2.57s-1.27-.4-1.8.4a37.79,37.79,0,0,1-2.56,3.1c-.49.53-.91.59-1.72.2a21.79,21.79,0,0,1-6.41-3.93A23.64,23.64,0,0,1,51.94,57c-.46-.78,0-1.21.36-1.61A16.22,16.22,0,0,0,53.45,54a5.5,5.5,0,0,0,.79-1.32,1.41,1.41,0,0,0-.07-1.38c-.19-.4-1.79-4.29-2.45-5.88s-1.33-1.52-1.8-1.52a9.68,9.68,0,0,0-1.32.14,4.47,4.47,0,0,0-2.32,1,8.86,8.86,0,0,0-2.8,6.63c0,3.9,2.85,7.67,3.25,8.19s5.61,8.75,13.68,11.91,8.09,2.12,9.56,2,4.72-1.92,5.38-3.76a6.56,6.56,0,0,0,.47-3.76C75.62,65.92,75.09,65.72,74.29,65.32Z"/></svg>