<svg id="Capa_1" data-name="Capa 1" xmlns="http://www.w3.org/2000/svg" viewBox="0 0 118.82 118.51"><defs><style>.cls-1{fill:#d4e0df;isolation:isolate;opacity:0.44;}.cls-2{fill:#3c3c3b;}</style></defs><path class="cls-1" d="M89.93,11.88C82.26,4.15,71.52-1.78,60.6.49,51,2.34,42.45,7.42,34.15,12.55c-10.95,7-22.83,13.86-30,25.41C-1.93,47.89-.3,60.43,2.56,71.2s5.88,21.52,11.1,31.28a27.51,27.51,0,0,0,17.25,14.57c12,3,24.38.52,36.51.26s24.67-1.22,36.21-5.7c10.7-4.52,14.7-17.42,15.16-28.56C119.45,56.37,107.93,30.37,89.93,11.88Z"/><path class="cls-2" d="M97.52,43l-7.36-4a9.87,9.87,0,0,0-9.35,0l-9.7,5-9.45-3.78,3-1.55-1-1.89-4.57,2.37-8.54-3.37L55,33.46l-1-1.89-6,3.14-7.56-2.95L29.21,37.62,53.78,52.91l-13.38,7a3.32,3.32,0,0,1-2.84.09L26.94,55.5l-7.56,4L39.26,74.78A7.71,7.71,0,0,0,44,76.39a7.85,7.85,0,0,0,3.55-.87l14.21-7.41L60.24,96.94l11.25-5.86,1.89-7.81,5.91-3.19-1-1.89-4.44,2.3L76,71.55l4.56-2.38-1-1.89-3,1.53L79,58.91,97.46,49.3a3.74,3.74,0,0,0,2-3.25A3.67,3.67,0,0,0,97.52,43Zm-6.41-1.13-7.2,3.78L83,43.9l6.07-3.16h.09Zm-57.67-4,7.18-3.78L68.67,45.13,55.86,51.8ZM69.58,89.7l-7.16,3.78L63.78,67l12.79-6.67ZM96.49,47.62l-50,26.07a5.69,5.69,0,0,1-6-.53L23.16,59.93l3.89-2L36.67,62a5.37,5.37,0,0,0,4.63-.19L81.77,40.69a7.83,7.83,0,0,1,4.46-.84L80.14,43,83,48.4,93.38,43l3.19,1.76a1.56,1.56,0,0,1,.85,1.41A1.63,1.63,0,0,1,96.49,47.62Z"/><path class="cls-2" d="M52.32,61.17a1.76,1.76,0,0,0-2.39-.75h0a1.8,1.8,0,0,0,.29,3.31,2.26,2.26,0,0,0,.52,0,2,2,0,0,0,.84-.21,1.9,1.9,0,0,0,.77-2.35Zm-1.72.59h.12a.35.35,0,0,1,.28.15l-.51.27a.28.28,0,0,1,.1-.39h0Zm.27.51a.26.26,0,0,1-.36-.1l0,0,.51-.27a.3.3,0,0,1,0,.23.26.26,0,0,1-.13.19Z"/><path class="cls-2" d="M59.24,56.17a1.83,1.83,0,0,0-1.36.11,1.89,1.89,0,0,0-.76,2.42,1.8,1.8,0,0,0,1,.89,1.94,1.94,0,0,0,1.38-.12,1.9,1.9,0,0,0,.87-1.06,1.7,1.7,0,0,0-.11-1.36A1.75,1.75,0,0,0,59.24,56.17Zm-.4,1.89a.41.41,0,0,1-.22,0,.3.3,0,0,1-.17-.14.28.28,0,0,1,0-.22.29.29,0,0,1,.53,0,.29.29,0,0,1,0,.4.33.33,0,0,1-.13.07Z"/><path class="cls-2" d="M68.27,52.9a1.77,1.77,0,0,0-3.28.28,1.66,1.66,0,0,0,.11,1.36,1.9,1.9,0,0,0,1.06.89,1.57,1.57,0,0,0,.53,0,2,2,0,0,0,.83-.19,1.89,1.89,0,0,0,.75-2.42Zm-1.72.56h.12a.36.36,0,0,1,.24.15l-.51.27a.28.28,0,0,1,.1-.39Zm.27.51a.31.31,0,0,1-.38-.11l.47-.25a.3.3,0,0,1,0,.23.15.15,0,0,1,0,.13Z"/><path class="cls-2" d="M74,47.94a1.78,1.78,0,0,0-.77,2.42,1.9,1.9,0,0,0,1.6,1,1.92,1.92,0,0,0,.82-.21,1.8,1.8,0,0,0-.25-3.3A1.8,1.8,0,0,0,74,47.94Zm1,1.89a.29.29,0,0,1-.38-.11.38.38,0,0,1,.11-.4.3.3,0,0,1,.39.11v0A.29.29,0,0,1,74.93,49.83Z"/></svg>