<svg id="Capa_1" data-name="Capa 1" xmlns="http://www.w3.org/2000/svg" viewBox="0 0 27.73 27.73"><path d="M13.86,0A13.87,13.87,0,1,0,27.73,13.86,13.87,13.87,0,0,0,13.86,0Zm6.38,20a.82.82,0,0,1-1.18.28c-3.25-2-7.34-2.43-12.2-1.32a.85.85,0,1,1-.41-1.66c5.27-1.18,9.84-.69,13.44,1.53A.82.82,0,0,1,20.24,20Zm1.67-3.81a1.05,1.05,0,0,1-1.46.35A18,18,0,0,0,6.65,15a1.06,1.06,0,0,1-1.31-.69A1.07,1.07,0,0,1,6,13a20.33,20.33,0,0,1,15.6,1.87A1,1,0,0,1,21.91,16.22ZM22,12.34C17.61,9.7,10.19,9.43,6,10.74A1.27,1.27,0,1,1,5.2,8.32c4.92-1.46,13-1.18,18.16,1.87a1.35,1.35,0,0,1,.49,1.8A1.45,1.45,0,0,1,22,12.34Z"/></svg>