<svg id="Capa_1" data-name="Capa 1" xmlns="http://www.w3.org/2000/svg" viewBox="0 0 32 26"><defs><style>.cls-1{fill:#fff;}</style></defs><path class="cls-1" d="M0,23.05A18.54,18.54,0,0,0,10.06,26C22.25,26,29.14,15.71,28.72,6.48A13.42,13.42,0,0,0,32,3.08a13.32,13.32,0,0,1-3.77,1A6.59,6.59,0,0,0,31.11.48,13,13,0,0,1,27,2.07a6.57,6.57,0,0,0-11.19,6A18.63,18.63,0,0,1,2.23,1.2a6.58,6.58,0,0,0,2,8.77,6.47,6.47,0,0,1-3-.83,6.56,6.56,0,0,0,5.26,6.53,6.68,6.68,0,0,1-3,.11,6.57,6.57,0,0,0,6.13,4.56A13.17,13.17,0,0,1,0,23.05Z"/></svg>