<svg id="Capa_1" data-name="Capa 1" xmlns="http://www.w3.org/2000/svg" viewBox="0 0 24.57 28.16"><defs><style>.cls-1{fill:#fff;}</style></defs><path class="cls-1" d="M24.39,6.73a5,5,0,0,1-.95-.09C22.3,6.47,18.59,4.52,18,1.34A7.79,7.79,0,0,1,17.81.16c0-.16,0-.16-.15-.16H13.21c-.3,0-.26,0-.26.26V19.18a3.21,3.21,0,0,1,0,.69,4.09,4.09,0,0,1-4.69,3.38l-.16,0a3.61,3.61,0,0,1-1.33-.66C6,22,4.14,19.16,5.54,17a4.08,4.08,0,0,1,2.05-1.61A4,4,0,0,1,9,15.18a5,5,0,0,1,.94.14c.12,0,.17,0,.18-.11v-.12c0-1.13,0-3.6-.05-3.61v-1c0-.08,0-.1-.12-.11a9.2,9.2,0,0,0-1.74,0A8.85,8.85,0,0,0,.78,15.58a8.26,8.26,0,0,0-.76,3,9,9,0,0,0,.39,3.26,8.92,8.92,0,0,0,3,4.36,2.51,2.51,0,0,0,.46.32l.23.19a3.8,3.8,0,0,0,.74.46,8.84,8.84,0,0,0,5.11.87A8.75,8.75,0,0,0,15.73,25a8.67,8.67,0,0,0,2.13-5.83V9.77c0-.08,0-.18,0-.22s.13.06.19.1a11.46,11.46,0,0,0,3.82,1.68,10.88,10.88,0,0,0,2.41.29c.26,0,.29,0,.29-.26,0-1.12-.06-4.16-.06-4.46S24.53,6.73,24.39,6.73Z"/></svg>