<svg id="Capa_1" data-name="Capa 1" xmlns="http://www.w3.org/2000/svg" viewBox="0 0 28.19 28.16"><path d="M0,2A1.62,1.62,0,0,1,1.77,0H26.23a1.85,1.85,0,0,1,1.49.45A1.91,1.91,0,0,1,28.18,2c0,8.21,0,16.43,0,24.65a1.61,1.61,0,0,1-1.72,1.55h-7V17.26h3.66c.19-1.41.37-2.83.55-4.25H19.45c0-1,0-2.11,0-3.16a1.55,1.55,0,0,1,1.15-1.51,20,20,0,0,1,3.19-.12V4.43a18.4,18.4,0,0,0-4.45-.07,4.89,4.89,0,0,0-3.85,2.95c-.73,1.81-.35,3.81-.44,5.7H11.4v4.25h3.67v10.9c-4.5,0-9,0-13.5,0A1.6,1.6,0,0,1,0,26.41Q0,14.2,0,2Z"/></svg>