<svg id="Capa_1" data-name="Capa 1" xmlns="http://www.w3.org/2000/svg" viewBox="0 0 28.17 28.16"><defs><style>.cls-1{fill:#fff;}</style></defs><path class="cls-1" d="M5.83,2.68A14.08,14.08,0,1,1,17.44,27.76a14.31,14.31,0,0,1-7.35-.16c1.4-2.05,1.78-4.52,2.4-6.87a4.13,4.13,0,0,0,3.09,1.71,6.74,6.74,0,0,0,5.23-2,10.71,10.71,0,0,0,2.72-7.7,7.9,7.9,0,0,0-3.71-6.52,9.88,9.88,0,0,0-6.3-1.41A10,10,0,0,0,6.88,7.85,8.39,8.39,0,0,0,4.76,15.4,4.67,4.67,0,0,0,7.62,19c.52,0,.55-.59.67-.95s.33-.9,0-1.27c-1.51-1.83-1.14-4.56,0-6.47a6.62,6.62,0,0,1,4.59-3,6.75,6.75,0,0,1,5.55,1.3,5.47,5.47,0,0,1,1.65,4.39,10.51,10.51,0,0,1-1.4,5.14A3.7,3.7,0,0,1,15.64,20a2.18,2.18,0,0,1-2.29-2.23c.24-1.86,1.22-3.57,1.29-5.47a2,2,0,0,0-1.24-2,2.32,2.32,0,0,0-2.48.84,4.78,4.78,0,0,0-.66,4.26c.08.34.27.68.14,1q-.7,3-1.43,6.05A15.16,15.16,0,0,0,8.41,27,14.08,14.08,0,0,1,5.83,2.68Z"/></svg>