<svg id="Capa_1" data-name="Capa 1" xmlns="http://www.w3.org/2000/svg" viewBox="0 0 505.8 135.97"><defs><style>.cls-1{fill:#23120e;}.cls-2{fill:#ebc4a4;}.cls-3{fill:#456e6a;}.cls-4{fill:#4c6b68;}.cls-5{fill:#8c4848;}.cls-6{fill:#ad4a5b;}.cls-7{fill:#446e6b;}.cls-8{fill:#486b68;}.cls-9{fill:#446d6b;}.cls-10{fill:#42706b;}.cls-11{fill:#b4bebc;}.cls-12{fill:#a64240;}.cls-13{fill:#b1433d;}.cls-14{fill:#476c6b;}.cls-15{fill:#43706b;}.cls-16{fill:#496e6a;}.cls-17{fill:#1c1c1c;}</style></defs><path class="cls-1" d="M191,21c3.85-7,6.26-14.86,11.45-21,1.79,1.79.05,4.06.07,6.13.95,1.79,2.64,3.52,1.9,5.74-1.53,4.49-3.6,8.8-4.92,13.37a117.08,117.08,0,0,0-6.8,25.13,19.37,19.37,0,0,0,.27,2.4c5.23-2,10.15-4.81,15.33-6.94,3-1,6.08.25,8.56,1.89,2.95,2.05,6.42,3.53,8.58,6.53,2.2-3,5.69-4.48,8.66-6.55,2.32-1.33,5-3,7.79-2.11a74.69,74.69,0,0,1,9.8,4.17l1.47.82c1.55.83,3.18,1.5,4.8,2.17.25-5.68-1.63-11.14-2.7-16.65-1.81-5.59-4-11.06-5.8-16.66-.9-3.13-3.07-6-2.92-9.36,0-1.58,1.24-2.69,2.07-3.89-.41-1.63-.8-3.27-1.06-4.94L249.05.14a138.85,138.85,0,0,1,6.7,12.28c2.39,5.47,5.26,10.71,8,16a46.11,46.11,0,0,0-1.84-10.29A8.84,8.84,0,0,1,261.7,13c.7-1.41,2-2.42,2.79-3.75.25-1.59.26-3.21.42-4.8l1.51-1.11.95,1.07c1.64,7.94,2.91,16,5.83,23.63a83.46,83.46,0,0,1,4.31,14.54,34.67,34.67,0,0,0,.95-11.48,5.79,5.79,0,0,1,3.16-5.32c.66-2.06.87-4.23,1.49-6.29a16,16,0,0,1,1.9.95c1.08,3.47.88,7.13.91,10.72a79.45,79.45,0,0,1,.36,17.71c-.79,3.57-.36,7.22-.53,10.84-.63,3.89-1.9,7.91-.88,11.85,3.41,3.62,7.29,6.81,10.45,10.68a169.72,169.72,0,0,1,11.53,14.53c1.74,2.4,2.66,5.26,3.68,8,2.39,6.22,4.13,12.65,5.94,19.05.39,1.49,1,3.26-.09,4.61-2.56,3.34-6.79,4.79-10.65,6-4.65,1.14-9.75,2.39-14.42.72-1.3-.29-1.5-1.68-1.59-2.79a43,43,0,0,0-2.51-10.17c-1.57-4.17-3.68-9.26-8.57-10.27-7.06-1.44-14.28-1.93-21.41-3.07a29.3,29.3,0,0,0-13.66,1c-1.69.36-3.5.52-4.95,1.57-1.91,1.38-3.29,3.34-4.92,5-2.41,2.59-4,5.93-6.83,8.09-1.4.23-3.15.4-4-.95-2.62-3-4.71-6.43-7.55-9.24a16.27,16.27,0,0,0-8.63-5L205,109a30.91,30.91,0,0,0-13.63.48c-5-.07-9.83,1-14.75,1.52a21.47,21.47,0,0,0-6.84,1.69,9.68,9.68,0,0,0-3.63,4,46.79,46.79,0,0,0-5.26,17.77c-3.15,1.94-7,1.59-10.48,1.09-4.38-.51-8.38-2.48-12.69-3.28l1.06.16c-1.81-1.7-4.48-3.15-4.91-5.81.23-3.62,1.74-7,2.65-10.48,2.31-7.24,4.07-14.91,8.63-21.15a130,130,0,0,1,18.26-20.86c1.14-1.14,2.58-2.29,2.77-4,.33-3-.35-5.89-.8-8.8-.61-3.73-.32-7.52-.71-11.27a77.13,77.13,0,0,1-.47-9.73c0-3.31.59-6.58.7-9.88-.08-3.67-.07-7.47,1.36-10.91l1.54.19c.12.68.26,1.35.4,2,.31,2.21,1.66,4,2.91,5.77,1.65,2.31,1.45,5.3,1.55,8a24.12,24.12,0,0,0,.5,6.11c0-2.2,1-4.18,1.82-6.19,2.5-7.18,5.39-14.29,6.71-21.82.72-3.53.92-7.24,2.56-10.51,2.37,1.2,1.79,3.92,2.06,6.1.69,1.48,2.56,2.22,2.93,3.93,1,3-.87,5.8-1.17,8.73-.3,2.32-1.05,4.58-1.15,6.93C188.5,26.34,189.51,23.56,191,21ZM249.1,2.48c.32,1.28.74,2.54,1.17,3.79a12.57,12.57,0,0,0-2.37,3.3c-.44,2,.48,4,1.25,5.75,1.07,2.31,1.84,4.73,2.71,7.12a30.8,30.8,0,0,1,4.75-1.77,22.24,22.24,0,0,1-4.51,2.84c1.94,5.29,4,10.54,5.27,16.05a59,59,0,0,1,6.07-3c-1.52,1.85-3.76,2.79-5.83,3.87.56,3.7,1.95,7.32,1.77,11.12-.22,2.56-3.15,3.3-5,4.38.59-.82,1.21-1.62,1.82-2.43-4.68-2-9.17-4.52-13.92-6.4-3.19-1.13-6.32.88-8.89,2.56-2.17,1.55-4.75,2.65-6.44,4.78a12.47,12.47,0,0,0,0,5c.21.62,0,1.62.79,1.89a37.49,37.49,0,0,0,0,8.92c.87-1.11,1.75-2.2,2.7-3.24,3.67-2.2,2.51-6.85,2.58-10.4.49.46,1,.93,1.48,1.38,1.74-.68,3.49-1.32,5.24-2a14.07,14.07,0,0,1,.72-4.87,34.31,34.31,0,0,1,.21,4.86c2.42,1.13,4.9,2.17,7.24,3.47,5,2.54,7.65,7.85,9.23,13a29.22,29.22,0,0,1-1.41,14.5c-1.45,4.17-5,7.12-8.48,9.57-1.55,1.12-3.53,1.17-5.32,1.63a27.74,27.74,0,0,0-7.54,3.21,21.26,21.26,0,0,1,3,5.08c-1.44-1.28-2.55-2.87-4-4.14.59,1.53,1.43,3,2,4.47a32.72,32.72,0,0,1-3.16-3.59,17.27,17.27,0,0,0-4.74,11.79c.25,2,.92,4,.66,6.14,1.18-2.5,3.46-4.14,5.26-6.15s3.35-4.23,5.87-5.25a43.35,43.35,0,0,1,9.39-2.35c5.05-.77,10.07.51,15.06,1.08,4.3.47,8.56,1.26,12.88,1.55a82.7,82.7,0,0,0-1.18-14.66,19.08,19.08,0,0,0-11.25-14.42c-2-.93-4.3-1.33-6.24-2.48,8.51.59,16.42,7.21,18.06,15.67a62.71,62.71,0,0,1,1.11,16.12,14.89,14.89,0,0,1,5.24,1.75,13.23,13.23,0,0,1,4.26,5.66c2.14,4.8,4,9.81,4.37,15.1-.12,1.45,1.7,1.63,2.76,1.87,6.23.54,12.5-1.19,18-4,1.84-1.08,4.68-2.77,3.77-5.31a213,213,0,0,0-7.67-24,26.45,26.45,0,0,0-3.23-5.5A137.66,137.66,0,0,0,285.45,74c-.81-.8-1.87-1.59-2-2.83a26.92,26.92,0,0,1,.69-9.83c.92-3.36,0-6.85.53-10.25a73.69,73.69,0,0,0-.29-21.89,16.34,16.34,0,0,0-.43-7.8c-.6,1.85-1,3.75-1.74,5.56a3.93,3.93,0,0,0-2.53,4.05,42,42,0,0,1-.59,10.08,40.12,40.12,0,0,1,4.56,1.17,23.82,23.82,0,0,1-4.85.08c-.69,3.31-1.51,6.6-2.12,9.93,1.74.64,3.55,1.1,5.27,1.79a41.07,41.07,0,0,1-5.64-.63,58,58,0,0,1-2.64,9.73l-.87-.31c1.51-3.16,2-6.66,2.87-10a24.8,24.8,0,0,0,1.06-6.27C276,37,271.4,28.29,269.12,19c-.85-2.41-.8-5.11-2-7.39-.64-1.38-2.49-.75-3.2.25-1.49,1.5-1.42,3.84-.79,5.72A50.65,50.65,0,0,1,264.77,26a32.3,32.3,0,0,1,4.4-.29,20.75,20.75,0,0,1-4,1.39c-.17,4.65,1.25,9.12,1.8,13.7A45.26,45.26,0,0,1,273,39.35c-1.71,1.24-3.81,1.65-5.78,2.3-.11,4.66.46,9.36-.08,14-.77-2.1-.61-4.35-.69-6.54.17-6.16-.18-12.63-3-18.22-1.74-3.44-3.32-7-5.21-10.32-2.36-4.31-3.77-9.14-6.71-13.15C250.36,6,249.87,4.14,249.1,2.48ZM196.4,12.74c-3.18,7.07-7,13.83-10.17,20.91-2.55,6.93-1.32,14.41-2.4,21.57-.82-4.47-.1-9.07-.25-13.6-2-.63-4.14-1-5.78-2.38a52.6,52.6,0,0,1,6,1.54c.81-4.56,2-9.09,2-13.75a20.46,20.46,0,0,1-4.21-1.42c1.52,0,3,.22,4.53.39a46.29,46.29,0,0,1,1.93-9.27,4.62,4.62,0,0,0-3.88-6.12c-1.5,3-1.72,6.41-2.73,9.57-1.74,6.78-4.89,13.13-6.23,20-.52,2.88-1.77,5.83-.88,8.78,1.14,4.89,2.16,9.81,3.59,14.63-2.45-2.87-2.46-6.87-3.41-10.35a17.48,17.48,0,0,1-5.46.83c1.67-.68,3.4-1.18,5.08-1.83-.49-3.44-1.44-6.79-2.26-10.16-1.36.25-2.72.44-4.1.61l-.24-.8c1.41-.19,2.82-.4,4.21-.63a36.59,36.59,0,0,1-.63-9.57A5.43,5.43,0,0,0,169,26.83l-.85-.3a10.44,10.44,0,0,0-1.68-5.22,24,24,0,0,0,0,8.66,66.54,66.54,0,0,0-1,14.16c.1,3.95,1.18,7.83,1,11.8-.57,5.49,2.67,10.93.72,16.36-1.62,2.09-3.85,3.58-5.68,5.47A153.2,153.2,0,0,0,145.87,96.4c-3.26,4.37-4.74,9.71-6.41,14.82s-3.26,10.25-4.44,15.49c1.24,2.52,3.91,3.9,6.36,5,5.24,2.07,10.94,3.55,16.61,2.7.81-.18,1.83-.64,1.85-1.61a43.09,43.09,0,0,1,2.08-9.34c1.49-3.82,2.75-8,5.82-10.88,1.58-1.55,3.84-1.93,5.91-2.42A76.79,76.79,0,0,1,175,93.69c1.66-8.29,9.51-14.53,17.76-15.31-2.59,1.63-5.75,2-8.34,3.65A19,19,0,0,0,176,93c-1.44,5.62-1.28,11.48-1.92,17.22,6.83-1.18,13.74-1.79,20.58-2.87,5.53-.86,11.11.34,16.35,2.06,3.82,1.24,5.65,5.09,8.52,7.59A13.37,13.37,0,0,1,223.3,122c-.29-1.27-1.13-2.54-.54-3.85,1.83-5.28-.53-11-4.13-15a16.09,16.09,0,0,1-3.61,3.93c.81-1.67,1.95-3.16,2.67-4.88-1.62,1.2-2.78,2.86-4.3,4.16a22.07,22.07,0,0,1,3.19-5,29.25,29.25,0,0,0-7-3.08c-2.19-.61-4.67-.61-6.49-2.15-2.5-2-5.24-3.95-6.8-6.84a29.51,29.51,0,0,1-3-12.24c-.29-4.66,1.91-9,4.31-12.8,2.85-4.42,8.14-6.06,12.64-8.25a23.25,23.25,0,0,1,.19-4.86,31.63,31.63,0,0,1,.9,5c1.75.59,3.48,1.2,5.21,1.83l1.4-1.55c0,2.48-.12,5,.16,7.45.19,1.56,1.51,2.56,2.79,3.24.53,1.11,1.18,2.15,1.79,3.2a13.41,13.41,0,0,0,.22-8.95l.74-.52c.2-2,1-4.06.46-6.06-1.42-2.18-3.91-3.29-6-4.75-2.93-1.89-6.54-4.4-10.14-2.74-4.45,2-8.79,4.18-13.24,6.16.46.72.93,1.44,1.4,2.16-1.77-.91-4.53-1.61-4.65-4-.16-3.81,1.12-7.49,1.87-11.18-2.13-1.13-4.44-2.09-6.1-3.91a59.31,59.31,0,0,1,6.23,3c1.26-5.52,3.57-10.73,5.15-16.16a14.88,14.88,0,0,1-4.2-2.68c1.46.39,2.8,1.06,4.22,1.57,1-.51,1-1.82,1.44-2.7.83-2.85,2.38-5.45,3-8.34.49-2-1.42-3.46-2.59-4.83.42-1.08.83-2.16,1.19-3.25C200.19,6.45,197.86,9.35,196.4,12.74Zm9.07,46.92A20.59,20.59,0,0,0,199,64.53c-3,4.29-5.3,9.6-4.28,14.94.71,3.86,1.31,8,4,11.06a28.67,28.67,0,0,0,6.45,5.38c3,1,6.26,1.19,9.06,2.75,1.54.63,3,2.39,4.73,1.46l-1.21.36a20.24,20.24,0,0,1,5.85,8.51l.49,0c.12,2.83.87,5.7.08,8.5-.75,1.78.46,3.38,1.18,4.93.59-1.39,2-2.77,1.34-4.39a14.92,14.92,0,0,1-.05-7.45,17.44,17.44,0,0,1,8.05-11c3.42-2.37,7.7-2.59,11.44-4.17,3.93-2.39,7.59-5.92,8.73-10.53.86-3.48,1.64-7.1,1.14-10.69a23.15,23.15,0,0,0-4.16-9.45c-2.31-3.26-6.1-4.94-9.63-6.54-2.34-1.26-4.89,0-7.23.64l-.72.9.25.52a18.4,18.4,0,0,1-1,5.2C232.77,67,231.24,68,229.92,69l.19.3c-.54,1-1.06,2-1.57,3.09l-1.43-.22a37.53,37.53,0,0,0-1.46-7,57,57,0,0,1-.13-6.8c-.49,2.69-.11,5.48-.8,8.14-.47,2.17-.35,4.58-1.88,6.39-1.37-1.69-1.63-4.18-3.64-5.3-1.33-.84-1.92-2.32-2.59-3.65l-1.17.66c1.68-1.25,1-3.54,1.08-5.32-1.81-.62-3.61-1.29-5.36-2.08A26.75,26.75,0,0,0,205.47,59.66Z"/><path class="cls-1" d="M259.2,63.19c2,2.73,3.14,6.12,5.79,8.38,4.44,3.74,10.46,4.93,16.13,4.53,0,.2,0,.6,0,.8-5.86.33-12.16-.85-16.74-4.74A17.3,17.3,0,0,1,259.2,63.19Z"/><path class="cls-1" d="M186.14,71.41c2.48-2.14,3.38-5.45,5.55-7.83a16.63,16.63,0,0,1-7.09,10c-4.39,2.9-9.84,3.59-15,3.33,0-.19,0-.58,0-.78C175.42,76.48,181.64,75.31,186.14,71.41Z"/><path class="cls-2" d="M249.1,2.48c.77,1.66,1.26,3.47,2.39,4.94,2.94,4,4.35,8.84,6.71,13.15,1.89,3.36,3.47,6.88,5.21,10.32,2.86,5.59,3.21,12.06,3,18.22.08,2.19-.08,4.44.69,6.54.54-4.64,0-9.34.08-14,2-.65,4.07-1.06,5.78-2.3a45.26,45.26,0,0,0-6.07,1.41c-.55-4.58-2-9-1.8-13.7a20.75,20.75,0,0,0,4-1.39,32.3,32.3,0,0,0-4.4.29,50.65,50.65,0,0,0-1.68-8.37c-.63-1.88-.7-4.22.79-5.72.71-1,2.56-1.63,3.2-.25,1.24,2.28,1.19,5,2,7.39,2.28,9.28,6.91,18,7.65,27.58a24.8,24.8,0,0,1-1.06,6.27c-.85,3.37-1.36,6.87-2.87,10l.87.31a58,58,0,0,0,2.64-9.73,41.07,41.07,0,0,0,5.64.63c-1.72-.69-3.53-1.15-5.27-1.79.61-3.33,1.43-6.62,2.12-9.93a23.82,23.82,0,0,0,4.85-.08,40.12,40.12,0,0,0-4.56-1.17,42,42,0,0,0,.59-10.08A3.93,3.93,0,0,1,282.25,27c.73.74,1.46,1.48,2.17,2.24a73.69,73.69,0,0,1,.29,21.89c-.5,3.4.39,6.89-.53,10.25a26.92,26.92,0,0,0-.69,9.83c.09,1.24,1.15,2,2,2.83a137.66,137.66,0,0,1,19.2,21.78,26.45,26.45,0,0,1,3.23,5.5,213,213,0,0,1,7.67,24c.91,2.54-1.93,4.23-3.77,5.31-5.55,2.77-11.82,4.5-18,4-1.06-.24-2.88-.42-2.76-1.87-.4-5.29-2.23-10.3-4.37-15.1a13.23,13.23,0,0,0-4.26-5.66,14.89,14.89,0,0,0-5.24-1.75A62.71,62.71,0,0,0,276,94.07c-1.64-8.46-9.55-15.08-18.06-15.67,1.94,1.15,4.2,1.55,6.24,2.48A19.08,19.08,0,0,1,275.42,95.3,82.7,82.7,0,0,1,276.6,110c-4.32-.29-8.58-1.08-12.88-1.55-5-.57-10-1.85-15.06-1.08a43.35,43.35,0,0,0-9.39,2.35c-2.52,1-4.06,3.36-5.87,5.25s-4.08,3.65-5.26,6.15c.26-2.09-.41-4.1-.66-6.14a17.27,17.27,0,0,1,4.74-11.79,32.72,32.72,0,0,0,3.16,3.59c-.61-1.52-1.45-2.94-2-4.47,1.45,1.27,2.56,2.86,4,4.14a21.26,21.26,0,0,0-3-5.08,27.74,27.74,0,0,1,7.54-3.21c1.79-.46,3.77-.51,5.32-1.63,3.51-2.45,7-5.4,8.48-9.57a29.22,29.22,0,0,0,1.41-14.5c-1.58-5.1-4.28-10.41-9.23-13-2.34-1.3-4.82-2.34-7.24-3.47a34.31,34.31,0,0,0-.21-4.86,14.07,14.07,0,0,0-.72,4.87c-1.75.64-3.5,1.28-5.24,2-.5-.45-1-.92-1.48-1.38-.07,3.55,1.09,8.2-2.58,10.4-.42-1.63-.75-3.27-1.14-4.9l-1.54-.78C227,61,227.16,60,227,59.42a12.47,12.47,0,0,1,0-5c1.69-2.13,4.27-3.23,6.44-4.78,2.57-1.68,5.7-3.69,8.89-2.56,4.75,1.88,9.24,4.35,13.92,6.4-.61.81-1.23,1.61-1.82,2.43,1.88-1.08,4.81-1.82,5-4.38.18-3.8-1.21-7.42-1.77-11.12,2.07-1.08,4.31-2,5.83-3.87a59,59,0,0,0-6.07,3c-1.24-5.51-3.33-10.76-5.27-16a22.24,22.24,0,0,0,4.51-2.84,30.8,30.8,0,0,0-4.75,1.77c-.87-2.39-1.64-4.81-2.71-7.12-.77-1.79-1.69-3.75-1.25-5.75a12.57,12.57,0,0,1,2.37-3.3C249.84,5,249.42,3.76,249.1,2.48Zm10.1,60.71a17.3,17.3,0,0,0,5.16,9c4.58,3.89,10.88,5.07,16.74,4.74,0-.2,0-.6,0-.8-5.67.4-11.69-.79-16.13-4.53C262.34,69.31,261.21,65.92,259.2,63.19Z"/><path class="cls-2" d="M196.4,12.74c1.46-3.39,3.79-6.29,5.37-9.62-.36,1.09-.77,2.17-1.19,3.25,1.17,1.37,3.08,2.78,2.59,4.83-.67,2.89-2.22,5.49-3,8.34-.47.88-.48,2.19-1.44,2.7-1.42-.51-2.76-1.18-4.22-1.57a14.88,14.88,0,0,0,4.2,2.68c-1.58,5.43-3.89,10.64-5.15,16.16a59.31,59.31,0,0,0-6.23-3c1.66,1.82,4,2.78,6.1,3.91-.75,3.69-2,7.37-1.87,11.18.12,2.4,2.88,3.1,4.65,4-.47-.72-.94-1.44-1.4-2.16,4.45-2,8.79-4.2,13.24-6.16,3.6-1.66,7.21.85,10.14,2.74,2.07,1.46,4.56,2.57,6,4.75.52,2-.26,4.06-.46,6.06l-.74.52c-2.24,1-2,3.68-2,5.75-1.28-.68-2.6-1.68-2.79-3.24-.28-2.47-.12-5-.16-7.45L216.56,58c-1.73-.63-3.46-1.24-5.21-1.83a31.63,31.63,0,0,0-.9-5,23.25,23.25,0,0,0-.19,4.86c-4.5,2.19-9.79,3.83-12.64,8.25-2.4,3.83-4.6,8.14-4.31,12.8a29.51,29.51,0,0,0,3,12.24c1.56,2.89,4.3,4.83,6.8,6.84,1.82,1.54,4.3,1.54,6.49,2.15a29.25,29.25,0,0,1,7,3.08,22.07,22.07,0,0,0-3.19,5c1.52-1.3,2.68-3,4.3-4.16-.72,1.72-1.86,3.21-2.67,4.88a16.09,16.09,0,0,0,3.61-3.93c3.6,3.94,6,9.67,4.13,15-.59,1.31.25,2.58.54,3.85a13.37,13.37,0,0,0-3.77-4.94c-2.87-2.5-4.7-6.35-8.52-7.59-5.24-1.72-10.82-2.92-16.35-2.06-6.84,1.08-13.75,1.69-20.58,2.87.64-5.74.48-11.6,1.92-17.22a19,19,0,0,1,8.43-11c2.59-1.66,5.75-2,8.34-3.65-8.25.78-16.1,7-17.76,15.31a76.79,76.79,0,0,0-1.36,16.5c-2.07.49-4.33.87-5.91,2.42-3.07,2.89-4.33,7.06-5.82,10.88a43.09,43.09,0,0,0-2.08,9.34c0,1-1,1.43-1.85,1.61-5.67.85-11.37-.63-16.61-2.7-2.45-1.13-5.12-2.51-6.36-5,1.18-5.24,2.92-10.34,4.44-15.49s3.15-10.45,6.41-14.82a153.2,153.2,0,0,1,15.57-18.64c1.83-1.89,4.06-3.38,5.68-5.47,1.95-5.43-1.29-10.87-.72-16.36.22-4-.86-7.85-1-11.8a66.54,66.54,0,0,1,1-14.16A25.3,25.3,0,0,1,169,26.83a5.43,5.43,0,0,1,2.17,4.88,36.59,36.59,0,0,0,.63,9.57c-1.39.23-2.8.44-4.21.63l.24.8c1.38-.17,2.74-.36,4.1-.61.82,3.37,1.77,6.72,2.26,10.16-1.68.65-3.41,1.15-5.08,1.83a17.48,17.48,0,0,0,5.46-.83c1,3.48,1,7.48,3.41,10.35-1.43-4.82-2.45-9.74-3.59-14.63-.89-2.95.36-5.9.88-8.78,1.34-6.89,4.49-13.24,6.23-20,1-3.16,1.23-6.57,2.73-9.57a4.62,4.62,0,0,1,3.88,6.12A46.29,46.29,0,0,0,186.15,26c-1.5-.17-3-.37-4.53-.39A20.46,20.46,0,0,0,185.83,27c-.06,4.66-1.2,9.19-2,13.75a52.6,52.6,0,0,0-6-1.54c1.64,1.38,3.8,1.75,5.78,2.38.15,4.53-.57,9.13.25,13.6,1.08-7.16-.15-14.64,2.4-21.57C189.39,26.57,193.22,19.81,196.4,12.74ZM186.14,71.41c-4.5,3.9-10.72,5.07-16.52,4.7,0,.2,0,.59,0,.78,5.15.26,10.6-.43,15-3.33a16.63,16.63,0,0,0,7.09-10C189.52,66,188.62,69.27,186.14,71.41Z"/><path class="cls-3" d="M228.09,16.31c.29.05.88.13,1.18.16,4,8,7.8,16.12,12,24.05.23-4.73-1.43-9.24-2.15-13.85-.48-3,2.51-4.61,3.56-7l.87-.18c1.67,6.73,3.14,13.55,5.66,20,1.14,3.33,2.63,6.71,2.48,10.29a74.69,74.69,0,0,0-9.8-4.17c-2.78-.88-5.47.78-7.79,2.11-.86-5.35-3.37-10.22-4.94-15.38-1-3.37-2.85-6.44-3.47-9.91C225.84,20.21,227.4,18.39,228.09,16.31Z"/><path class="cls-4" d="M170,19.74l1-.32c1.19,2.64,4.63,4.52,3.74,7.81-.7,2.76-1.28,5.56-2,8.32-.1-2.7.1-5.69-1.55-8-1.25-1.77-2.6-3.56-2.91-5.77l1.16,1.31C169.57,22,169.77,20.86,170,19.74Z"/><path class="cls-5" d="M166.44,21.31a10.44,10.44,0,0,1,1.68,5.22l.85.3A25.3,25.3,0,0,0,166.45,30,24,24,0,0,1,166.44,21.31Z"/><path class="cls-6" d="M284,21.44a16.34,16.34,0,0,1,.43,7.8c-.71-.76-1.44-1.5-2.17-2.24C283,25.19,283.39,23.29,284,21.44Z"/><path class="cls-7" d="M154.29,34.81c2.13,1,5.37,2,5.05,4.95a51.28,51.28,0,0,0,1.49,13.11c1.06-4.19,1.81-8.47,3.39-12.51a77.13,77.13,0,0,0,.47,9.73c.39,3.75.1,7.54.71,11.27.45,2.91,1.13,5.84.8,8.8-.19,1.71-1.63,2.86-2.77,4A130,130,0,0,0,145.17,95c-4.56,6.24-6.32,13.91-8.63,21.15-.91,3.48-2.42,6.86-2.65,10.48.43,2.66,3.1,4.11,4.91,5.81l-1.06-.16a18.51,18.51,0,0,1-10.87-5.22c-1-.93-.71-2.41-.4-3.59,1.5-5.39,3.24-10.71,5-16a33.24,33.24,0,0,1,4.14-9A143.46,143.46,0,0,1,149.4,81.88c1.72-1.85,3.93-3.28,5.39-5.36a21.37,21.37,0,0,0-.45-8.68c-.51-2.29-.23-4.64-.3-7-.34-5-1.31-9.93-.69-14.9C153.75,42.26,153.62,38.5,154.29,34.81Z"/><path class="cls-8" d="M255.23,36.1c1.07,5.51,3,11,2.7,16.65-1.62-.67-3.25-1.34-4.8-2.17C255.18,46,253.33,40.76,255.23,36.1Z"/><path class="cls-9" d="M211.16,57.22c1.75.79,3.55,1.46,5.36,2.08-.1,1.78.6,4.07-1.08,5.32-2.32,1.58-1.32,4.69-2.51,6.88a16.34,16.34,0,0,1-4.31,2.81c-.81-3.47-1.15-7-1.89-10.51A86.1,86.1,0,0,1,205,74.38c-1.47-.95-3.32-1.61-4.3-3.13-.85-2.15-.93-4.53-1.67-6.72a20.59,20.59,0,0,1,6.45-4.87l1.25,1.78C208.17,60,209.7,58.65,211.16,57.22Z"/><path class="cls-10" d="M235,58.84c2.34-.59,4.89-1.9,7.23-.64,3.53,1.6,7.32,3.28,9.63,6.54a23.15,23.15,0,0,1,4.16,9.45c.5,3.59-.28,7.21-1.14,10.69-1.14,4.61-4.8,8.14-8.73,10.53-3.74,1.58-8,1.8-11.44,4.17a17.44,17.44,0,0,0-8.05,11c.05-.35.14-1,.19-1.36l-2.74-.23-.49,0a20.24,20.24,0,0,0-5.85-8.51l1.21-.36c2.64-.83,5.57-1.12,7.77-3,2.41-1.94,4.84-4.11,6-7.07A25.3,25.3,0,0,0,234.34,79c-.36-3.58-2.39-6.67-4.23-9.66l-.19-.3c1.32-1.07,2.85-2,3.67-3.58a18.4,18.4,0,0,0,1-5.2C235.65,60.81,236.27,59,235,58.84Z"/><path class="cls-11" d="M234.32,59.74l.72-.9c1.23.17.61,2-.47,1.42Z"/><path class="cls-12" d="M220.91,67.13c0-2.07-.23-4.7,2-5.75a13.41,13.41,0,0,1-.22,8.95C222.09,69.28,221.44,68.24,220.91,67.13Z"/><path class="cls-13" d="M227.74,61.31l1.54.78c.39,1.63.72,3.27,1.14,4.9-.95,1-1.83,2.13-2.7,3.24A37.49,37.49,0,0,1,227.74,61.31Z"/><path class="cls-14" d="M191.39,109.51A30.91,30.91,0,0,1,205,109a19.9,19.9,0,0,1-.05,11.81c-2.89-2.44-5.17-5.49-7.87-8.12C195.53,111.12,193.32,110.52,191.39,109.51Z"/><path class="cls-15" d="M243.57,109.9a29.3,29.3,0,0,1,13.66-1c7.13,1.14,14.35,1.63,21.41,3.07,4.89,1,7,6.1,8.57,10.27a18.68,18.68,0,0,1,.39,3.33c-.78,2.61-3.47,3.87-5.71,5a33.18,33.18,0,0,1-13.78,2.75c-1.36-.14-3.44-.28-3.82-1.89-.75-5.87-2.43-11.81-5.78-16.74C254.9,110.14,248.41,111.84,243.57,109.9Z"/><path class="cls-16" d="M206.65,109.34a16.27,16.27,0,0,1,8.63,5c-2.24,2.09-4.22,4.41-6.51,6.45-.93-3.41-1.71-7-.47-10.46Z"/><path class="cls-17" d="M92.1,46,94,37.81C81.51,35.36,75.68,41.13,72.73,48.4L62.21,74.32c-3.52,8.07-9,14.76-12.53,14.76-1.44,0-2.59-1.08.8-9.43L65,43.79H53.43L41,74.39C37.37,82.6,32,89.08,28.52,89.08c-1.45,0-2.6-1.08.79-9.43,0,0,1.08-2.88,11.66-29.09,2.16-5.33,5.83-6.77,5.83-6.77L44.72,37.6c-5.19,0-9.22,2.95-11.81,6.41C17.14,49.48,0,52.21,0,66.4c-.07,7.78,5.9,13.32,14.69,13.32V70.36c-1.8,0-5-.86-5-4.32,0-5.55,8.57-7.92,18.07-11L19,76.7c-6,14.69-2.45,22,6,22C31.68,98.73,37.3,94.05,40,91c-.22,3.24,1.87,7.78,9.07,7.78,12,0,19.73-12.17,23.76-22.18L83,51.49C85.54,45.3,88.28,45.59,92.1,46Z"/><path class="cls-17" d="M115,76.05C109.87,85.12,102.1,90,94.75,90c-9.14,0-7-7.49-7-7.49,13.32,1.73,19.08-2.45,22.1-9,4.61-10.37-2.3-15.7-10.44-15.7-15.41,0-22.68,16.92-22.68,26.5C76.68,92.11,81.5,97,91.51,97c13.83,0,22.61-9.43,27.51-18.07A5.59,5.59,0,0,0,115,76.05ZM98.79,66.9c2.44,0,2,1.95,1.08,4.11-1.44,3.38-3.6,6.41-10.23,5.25C89.64,76.26,93.46,66.9,98.79,66.9Z"/><path class="cls-17" d="M371.45,86.89l15-37.3c1.72-4.32,2.73-7.27,2.73-9.94,0-4.18-2.45-7.56-7.13-7.56-5.18,0-11.3,4.1-16.34,8.64L358,31.44c-16.63,6.19-35.42,8.5-35.42,23.4-.08,7.78,5.9,13.25,14.69,13.25V58.73c-1.8,0-5-.86-5-4.32,0-6,10.29-8.28,21.38-11.95L335.3,88h11.45l14.19-35.43c4.1-4.39,11.23-9.79,14-9.79a1.59,1.59,0,0,1,1.66,1.65c0,1.52-1.51,5-3.31,9.51L360.79,84.8c-3,8.14-1.37,16,9.87,19.73l3.52-8.71C370,93.66,369.94,91.06,371.45,86.89Z"/><path class="cls-17" d="M445.17,46.64a6.5,6.5,0,0,0,6.34-6.34A6.33,6.33,0,0,0,445.17,34a6.24,6.24,0,0,0-6.33,6.27A6.39,6.39,0,0,0,445.17,46.64Z"/><path class="cls-17" d="M501.77,67c-3.24,5.62-6.2,9.51-10,12.53a15.4,15.4,0,0,0,.36-3.89c-.08-4.53-1.59-15.84.28-26l-9.93-2.52c-2.74,6-7.42,15-10.3,19.87h0c-5.11,8.85-10.08,13.89-13,13.89-1.22,0-2.52-1,.79-9.22L474.62,35.4H463.17L450.12,67.65c-5,8.46-9.77,13.26-12.58,13.26-1.22,0-2.52-1,.79-9.22l8.86-22H435.74l-7.28,18c-5,8.46-9.78,13.27-12.59,13.27-1.3,0-2.52-1.08.72-9.22l8.93-22H414.07l-2,4.9a8.53,8.53,0,0,0-8.56-5.84c-13.76,0-19.88,22.11-19.88,29.81,0,5.19,2.74,9.44,8.14,9.44,6.34,0,11.3-6,11.3-6s.94,6,8.43,6c5.24,0,9.83-3,13.88-7.41.4,5.19,3.86,7.41,8.15,7.41,4.93,0,9.48-3,13.52-7.43.4,5.2,3.86,7.43,8.15,7.43,8.28,0,15.48-8.36,21-18.08h0c1.44-2.52,3.32-6.26,5.19-9.93-.15,3.6.14,8.06.14,11.23,0,7-1.44,8.93-3.74,8.93a2.65,2.65,0,0,1-2.24-1l-6.33,4c.07.07,3.24,4.9,12.17,4.9,12.09,0,19.15-8.64,24.41-18.08A5.65,5.65,0,0,0,501.77,67Zm-97.42,6.63s-3.31,5.18-7.27,5.18c-1.44,0-2.31-.79-2.31-2.66,0-4.61,5.33-18.07,11-18.07,3.17,0,3.24,4,3.24,4Z"/></svg>