<?xml version="1.0" encoding="utf-8"?>
<!-- Generator: Adobe Illustrator 25.3.0, SVG Export Plug-In . SVG Version: 6.00 Build 0)  -->
<svg version="1.1" id="Capa_1" xmlns="http://www.w3.org/2000/svg" xmlns:xlink="http://www.w3.org/1999/xlink" x="0px" y="0px"
	 viewBox="0 0 58.7 48.2" style="enable-background:new 0 0 58.7 48.2;" xml:space="preserve">
<style type="text/css">
	.st0{fill:#FFFFFF;}
</style>
<path class="st0" d="M44.8,23.9v1.8c0,12.4-8.8,22-21.4,22S0.5,36.7,0.5,24.2C0.4,11.2,10.9,0.6,23.9,0.5c7.2,0,14,3.2,18.5,8.8
	l-4,3.8c-3.3-4.5-8.6-7.3-14.2-7.4c-10,0-18.1,8.2-18.1,18.2c0,0.1,0,0.1,0,0.2c0,9.5,7.8,18.5,17.6,18.5c7,0,14.6-6.1,14.8-13.4
	H26.8v-5.1H44.8z"/>
<path class="st0" d="M23.4,48.2c-12.7,0-23.4-11-23.4-24C-0.1,10.9,10.7,0.1,23.9,0c7.3,0,14.2,3.3,18.8,9L43,9.4l-4.7,4.5L38,13.3
	c-3.2-4.4-8.3-7.1-13.8-7.2C14.5,6.1,6.7,14,6.6,23.6c0,0.1,0,0.2,0,0.4c0,9.6,8,18,17.1,18C30,42,37.4,36.6,38,29.6H26.3v-6.2h18.9
	v2.3C45.3,38.7,36.1,48.2,23.4,48.2z M24,1C11.2,1.1,1,11.4,1,24.2c0,12.4,10.2,23,22.4,23s20.9-9,20.9-21.5v-1.3H27.3v4.2h11.7v0.5
	C38.8,35.7,32.2,43,23.7,43c-9.6,0-18.1-8.9-18.1-19c-0.2-10.2,8-18.7,18.2-18.8c0.1,0,0.3,0,0.4,0c5.6,0.1,10.8,2.7,14.3,7.1
	l3.2-3.1C37.3,4,30.8,1,24,1z"/>
<path class="st0" d="M58.2,44.2c0,1.9-1.6,3.5-3.5,3.5s-3.5-1.6-3.5-3.5l0,0c0-1.9,1.6-3.5,3.5-3.5S58.2,42.2,58.2,44.2z"/>
<path class="st0" d="M54.7,48.2c-2.2,0-4-1.8-4-4s1.8-4,4-4s4,1.8,4,4S56.9,48.2,54.7,48.2z M54.7,41.2c-1.7,0-3,1.3-3,3s1.3,3,3,3
	s3-1.3,3-3C57.7,42.5,56.4,41.2,54.7,41.2L54.7,41.2z"/>
</svg>
