<svg id="Capa_1" data-name="Capa 1" xmlns="http://www.w3.org/2000/svg" viewBox="0 0 118.82 118.51"><defs><style>.cls-1{fill:#d4e0df;isolation:isolate;opacity:0.44;}.cls-2{fill:#3c3c3b;}</style></defs><path id="Path_3171" data-name="Path 3171" class="cls-1" d="M96.27,10.61c10.54,7.43,17.2,21,20.48,35.7s3.12,30.51-3.28,44-18.85,24.46-32.6,27.4-28.69-2.43-43-8.21S9.74,97.65,3.86,87.11.05,61.61,2,46.14,6.19,14.5,15.26,6.81,40.59-.45,55.89.58,85.72,3.09,96.27,10.61Z"/><g id="Capa_2" data-name="Capa 2"><g id="Capa_1-2" data-name="Capa 1-2"><path class="cls-2" d="M72.39,42.51v-9.1H18.92V78.25H30.65A7.73,7.73,0,0,0,46,78.14l24.78.1h4.84a7.73,7.73,0,0,0,15.35,0h8.9V62.1L86.61,42.51Zm-34.07,41a6.16,6.16,0,1,1,6.16-6.16h0A6.16,6.16,0,0,1,38.32,83.5Zm7.71-7a7.74,7.74,0,0,0-15.4.1H20.5V35H70.81V76.66Zm37.29,7a6.16,6.16,0,1,1,6.16-6.16h0A6.18,6.18,0,0,1,83.32,83.5ZM91,76.66a7.72,7.72,0,0,0-15.39,0H72.39V44H85.77l1.69,2.47H79.58V63.14H98.33V76.66Zm6.61-15.11H81.16V48.13h7.36Z"/></g></g></svg>