<svg id="Capa_1" data-name="Capa 1" xmlns="http://www.w3.org/2000/svg" viewBox="0 0 118.82 118.51"><defs><style>.cls-1{fill:#d4e0df;isolation:isolate;opacity:0.44;}.cls-2{fill:#3c3c3b;}</style></defs><path id="Path_3171" data-name="Path 3171" class="cls-1" d="M96.27,10.61c10.54,7.43,17.2,21,20.48,35.7s3.12,30.51-3.28,44-18.85,24.46-32.6,27.4-28.69-2.43-43-8.21S9.74,97.65,3.86,87.11.05,61.61,2,46.14,6.19,14.5,15.26,6.81,40.59-.45,55.89.58,85.72,3.09,96.27,10.61Z"/><path class="cls-2" d="M92.07,45.87H61.44C72.3,38.61,76.81,33.55,75.6,30a6,6,0,0,0-6.24-3.34C65,27,61.22,31.94,59.43,39.29,57.62,31.94,53.91,27,49.5,26.63a6.11,6.11,0,0,0-6.26,3.3c-1.21,3.56,3.32,8.62,14.18,15.9H26.75V58.56h4.39V91.94H87.68V58.6h4.39ZM69.52,28.78h.36a4.09,4.09,0,0,1,3.75,2C74,31.88,73.44,35.38,60.68,44,61.91,34.42,66,29.06,69.52,28.78ZM45.21,30.61c.37-1.15,2.2-2,3.73-2h.36c3.49.28,7.61,5.64,8.84,15.08C45.38,35.28,44.81,31.78,45.21,30.61ZM33.28,89.77V58.6h16.4V89.83Zm18.48,0V58.6H67.18V89.83Zm33.89,0H69.2V58.6H85.59ZM90,56.44H28.85V48H90Z"/></svg>