<svg id="Capa_1" data-name="Capa 1" xmlns="http://www.w3.org/2000/svg" viewBox="0 0 118.82 118.51"><defs><style>.cls-1{fill:#d4e0df;isolation:isolate;opacity:0.44;}.cls-2{fill:#3c3c3b;}</style></defs><path class="cls-1" d="M89.93,11.88C82.26,4.15,71.52-1.78,60.6.49,51,2.34,42.45,7.42,34.15,12.55c-10.95,7-22.83,13.86-30,25.41C-1.93,47.89-.3,60.43,2.56,71.2s5.88,21.52,11.1,31.28a27.51,27.51,0,0,0,17.25,14.57c12,3,24.38.52,36.51.26s24.67-1.22,36.21-5.7c10.7-4.52,14.7-17.42,15.16-28.56C119.45,56.37,107.93,30.37,89.93,11.88Z"/><g id="Capa_2" data-name="Capa 2"><g id="Capa_1-2" data-name="Capa 1-2"><path class="cls-2" d="M74.81,26.6H25.5V48.4a5.44,5.44,0,0,0,5.15,5.43V91.91H88.17V53.79a5.46,5.46,0,0,0,5.15-5.39V26.6ZM60.49,28.72H74.81V48.4a3.36,3.36,0,0,1-3.35,3.37h-7.6a3.37,3.37,0,0,1-3.37-3.37h0ZM44,28.72H58.33V48.4A3.37,3.37,0,0,1,55,51.77H47.37A3.36,3.36,0,0,1,44,48.4ZM27.59,48.4V28.69H41.91V48.4a3.36,3.36,0,0,1-3.36,3.37H31A3.36,3.36,0,0,1,27.59,48.4Zm18.8,41.42V66.58H72.48V89.82Zm28.23,0V64.47H44.28V89.82H32.74v-36h5.81A5.43,5.43,0,0,0,43,51.57a5.41,5.41,0,0,0,4.41,2.27H55a5.47,5.47,0,0,0,4.46-2.32,5.42,5.42,0,0,0,4.44,2.32h7.6a5.43,5.43,0,0,0,4.4-2.27,5.44,5.44,0,0,0,4.41,2.27h5.81v36ZM91.23,28.69V48.4a3.36,3.36,0,0,1-3.36,3.37h-7.6a3.36,3.36,0,0,1-3.36-3.37h0V28.69Z"/></g></g></svg>