<svg id="Capa_1" data-name="Capa 1" xmlns="http://www.w3.org/2000/svg" viewBox="0 0 27.95 27.81"><defs><style>.cls-1{fill:none;stroke:#000;stroke-miterlimit:10;stroke-width:0.75px;}</style></defs><path class="cls-1" d="M5.82.74,11.27,6a1.31,1.31,0,0,1,0,1.86h0L9,10.26a1.32,1.32,0,0,0,0,1.86l6.27,6.05a1.33,1.33,0,0,0,1.87,0l2.32-2.42a1.32,1.32,0,0,1,1.86-.19l.08.08,5.83,5.58A1.31,1.31,0,0,1,27.32,23c-1.57,2-3.78,4-6,4.37-1.44.24-3.28.18-6.25-1.05-2.3-1-10.36-4.71-13.61-13.54C-.3,7.93.56,5.11.8,4.5A10.91,10.91,0,0,1,4.14.61,1.33,1.33,0,0,1,5.82.74Z"/></svg>